<?xml version="1.0" encoding="iso-8859-1"?>
<!-- Uploaded to: SVG Repo, www.svgrepo.com, Generator: SVG Repo Mixer Tools -->
<!DOCTYPE svg PUBLIC "-//W3C//DTD SVG 1.1//EN" "http://www.w3.org/Graphics/SVG/1.1/DTD/svg11.dtd">
<svg fill="#000000" height="800px" width="800px" version="1.1" id="Capa_1" xmlns="http://www.w3.org/2000/svg" xmlns:xlink="http://www.w3.org/1999/xlink" 
	 viewBox="0 0 297 297" xml:space="preserve">
<g>
	<path d="M271.044,122.378h-6.928c-3.824-4.761-8.618-8.709-14.08-11.546l4.357-4.355c3.898-3.898,3.898-10.221,0-14.119
		c-3.899-3.897-10.22-3.897-14.119,0l-6.121,6.122l-0.987-4.729c-4.361-20.894-24.498-37.261-45.842-37.261h-77.647
		c-21.345,0-41.48,16.367-45.841,37.26l-0.988,4.729l-6.12-6.121c-3.9-3.897-10.219-3.897-14.119,0
		c-3.898,3.898-3.898,10.221,0,14.119l4.357,4.355c-5.462,2.837-10.256,6.785-14.08,11.546h-6.928
		C11.644,122.378,0,134.021,0,148.334v66.221c0,14.313,11.644,25.956,25.956,25.956h17.473c10.712,0,19.925-6.523,23.885-15.806
		h162.378c3.958,9.282,13.168,15.806,23.88,15.806h17.473c14.313,0,25.956-11.643,25.956-25.956v-66.221
		C297,134.021,285.356,122.378,271.044,122.378z M229.862,204.739H67.138c-13.211,0-23.96-10.749-23.96-23.96v-30.947
		c0-12.824,10.129-23.326,22.805-23.931c0.836,1.449,1.777,2.839,2.839,4.146c6.353,7.814,16.23,12.298,27.101,12.298h105.156
		c10.87,0,20.748-4.483,27.101-12.299c1.061-1.307,2.002-2.695,2.838-4.145c12.677,0.604,22.806,11.106,22.806,23.931v30.947
		C253.822,193.99,243.073,204.739,229.862,204.739z M81.864,105.085l1.516-7.255c2.418-11.586,14.46-21.374,26.296-21.374h77.647
		c11.835,0,23.878,9.788,26.297,21.374l1.515,7.254c1.002,4.8,0.132,9.192-2.449,12.369c-2.582,3.176-6.704,4.925-11.607,4.925
		H95.922c-4.903,0-9.025-1.749-11.607-4.925C81.733,114.276,80.862,109.884,81.864,105.085z M25.956,220.544
		c-3.246,0-5.99-2.743-5.99-5.989v-66.221c0-2.484,1.61-4.671,3.821-5.561c-0.374,2.299-0.575,4.655-0.575,7.059v30.947
		c0,16.807,9.491,31.433,23.393,38.815c-0.928,0.596-2.019,0.949-3.176,0.949H25.956z M277.034,214.555
		c0,3.246-2.744,5.989-5.99,5.989h-17.473c-1.156,0-2.243-0.356-3.169-0.953c13.898-7.384,23.386-22.008,23.386-38.812v-30.947
		c0-2.403-0.201-4.76-0.575-7.059c2.211,0.89,3.821,3.076,3.821,5.561V214.555z"/>
	<path d="M173.125,176.287h-49.25c-5.514,0-9.983,4.47-9.983,9.983c0,5.513,4.47,9.982,9.983,9.982h49.25
		c5.514,0,9.983-4.47,9.983-9.982C183.108,180.757,178.639,176.287,173.125,176.287z"/>
	<path d="M85.238,176.639l-16.473-4.492c-5.32-1.453-10.807,1.685-12.258,7.005c-1.45,5.319,1.686,10.807,7.005,12.258l16.474,4.492
		c0.879,0.24,1.763,0.355,2.632,0.355c4.39,0,8.414-2.92,9.625-7.359C93.694,183.577,90.558,178.09,85.238,176.639z"/>
	<path d="M228.234,172.146l-16.473,4.492c-5.319,1.451-8.456,6.938-7.005,12.258c1.211,4.44,5.234,7.359,9.625,7.359
		c0.869,0,1.753-0.114,2.632-0.355l16.474-4.492c5.319-1.451,8.455-6.938,7.005-12.258
		C239.042,173.831,233.555,170.696,228.234,172.146z"/>
</g>
</svg>