<svg xmlns="http://www.w3.org/2000/svg" width="24" height="24" fill="none"><clipPath id="a"><path d="M0 0h24v24H0z"/></clipPath><g clip-path="url(#a)"><path fill="#00a651" d="M23.106 9.527c.224-.202.023-.247-.335-.247-.358 0-5.435-.022-7.403.538-1.3.37-4.651 2.152-5.077 2.51-.424.36-.424.472.269.472h7.268c.716 0 2.148-.045 2.796-.74.649-.695 2.258-2.332 2.482-2.533zm-4.583 5.229c-.978.012-6.093 1.01-6.093 1.01s-.726.666-.91.897c-.183.231-.045.254.322.254h1.791s.892.44 1.258.44c.368 0 2.104-.393 2.907-1.04.804-.647 1.46-1.549.725-1.561zm-14.061 1.01s-.528.43-.211.696c.317.267 1.627 1.045 2.05 1.045.422 0 3.508-.492 3.867-.656.36-.163 1.458-1.085 1.458-1.085H4.462zm10.617 3.743h-3.706s-.196.61-.494 1.123c.94 0 3.906-.15 3.906-.15zm-11.677.156c.827.74 5.919.967 5.919.967s.748-.343.95-1.175c-4.284-.01-7.256-.623-7.256-.623s-.128.37.387.83zm23.974-9.137c.152-.252.318-.509.502-.767-.437-.168-.79-.233-.79-.233zm-1.567-1.146c-.663 0-1.057.25-1.41.564-.352.312-1.554 1.792-1.907 2.292-.352.5-.062.542.518.5.396-.028 2.259-.182 3.41-.277.14-.356.325-.78.566-1.244l-.535-1.751s.021-.084-.642-.084zm2.514-.741c-1.278-.467-3.494-.638-5.148-.641-1.661.003-5.662.268-7.57.867-2.36.75-6.44 3.182-6.826 3.412-.394.12-3.783 1.097-4.913 2.115-.304.282-1 .998-1.3 1.97-.299.972-.563 2.272-.566 2.917.03.778.706 1.49 1.292 1.792.932.438 3.755.868 5.523 1.068 1.79.201 5.114.437 6.997.437.619 0 1.153-.086 1.578-.193.268.818.724 1.365 1.294 1.425l2.025.185c.931.098 1.854-1.142 2.211-2.875l2.026-.653c.017-.165.04-.354.072-.558l.01-.06-1.334.428c.052-.457.076-.88.076-1.27 0-2.55-1.039-3.77-2.054-3.763-1.104.008-2.525 1.92-3.056 3.463a17.626 17.626 0 0 0-.688 2.913 6.733 6.733 0 0 1-2.161.395c-1.852.002-4.524-.166-6.935-.432-2.404-.264-4.585-.647-5.343-1.018-.404-.17-1.005-.895-.973-1.285-.004-.525.226-1.841.534-2.734.298-.871.887-1.499 1.15-1.74.458-.431 1.664-.961 2.726-1.344 1.065-.389 1.997-.655 1.999-.655l.036-.01.032-.019a67.034 67.034 0 0 1 2.482-1.41c1.39-.752 3.086-1.598 4.254-1.966 1.764-.562 5.8-.844 7.401-.84 1.606-.004 3.822.184 4.955.605.05.018.101.043.152.065.12-.148.249-.294.381-.44a3.586 3.586 0 0 0-.339-.151zm-8.225 11.355c.128-1.261.734-2.23 1.35-2.164.617.065 1.013 1.14.884 2.401-.129 1.26-.734 2.23-1.35 2.164s-1.013-1.14-.884-2.4z"/><path stroke="#00a651" d="m10.434 6.187.046-.048c.108-.113.177-.186.23-.264a.498.498 0 0 0 .038-.065zm0 0-.006.007-.002.003-.007.007-.028.031-.11.118A39.578 39.578 0 0 1 8.578 8.07c-.498.47-1.02.93-1.48 1.268-.231.17-.435.301-.605.388-.183.094-.274.109-.293.109-.033 0-.127-.016-.297-.096a4.127 4.127 0 0 1-.569-.338 14.074 14.074 0 0 1-1.405-1.145c-.969-.881-1.818-1.804-1.975-2.02A3.416 3.416 0 0 1 1.68 5.8a2 2 0 0 1 .136-.066c.266-.116.664-.239 1.149-.35.966-.224 2.196-.386 3.235-.386 2.145 0 3.821.427 4.527.801zm-4.233-2.89H6.2c-1.195.001-2.533.18-3.615.428h-.002l-.121.029c.387-.742.922-1.576 1.636-2.32.063-.054.196-.141.397-.25.203-.11.445-.227.69-.332.245-.106.485-.198.683-.263.099-.033.182-.057.247-.072.053-.012.08-.016.087-.017.008.001.035.005.087.017.065.015.148.04.247.072.198.065.438.157.683.263.245.105.487.221.69.331.201.11.334.197.397.251.704.733 1.233 1.553 1.619 2.287-1.014-.255-2.283-.42-3.723-.424zm2.61 8.74-1.788.715.042-1.418c.343-.145.64-.35.918-.543l.109-.076.007-.005.007-.005c.323-.24.659-.517.988-.806.383.121.875.28 1.32.441a10.398 10.398 0 0 1 .82.33 1.648 1.648 0 0 1-.019.02c-.184.18-.499.392-.871.603a14.299 14.299 0 0 1-1.4.688l-.1.043-.027.01-.005.003zm-8.27.543c.015-.145.036-.311.063-.485.043-.275.1-.56.177-.812a1.91 1.91 0 0 1 .232-.529 2.2 2.2 0 0 1 .231-.12c.184-.084.427-.18.698-.278.434-.157.917-.315 1.303-.438.37.32.751.625 1.125.882l.01.007.01.005.03.02c.276.18.57.372.904.509v1.24zm1.022-6.707a.046.046 0 0 1-.009.008l.009-.008z"/><g fill="#00a651"><circle cx="5" cy="6" r="1"/><circle cx="7" cy="6" r="1"/></g></g></svg>