<svg xmlns="http://www.w3.org/2000/svg" width="24" height="24" fill="none"><circle cx="12" cy="12" r="12"/><g stroke="#00a651"><path d="M10.567 16.833h5.525a1 1 0 0 0 1-1V9.355a1 1 0 0 0-1-1H7.445a1 1 0 0 0-1 1v3.301a1 1 0 0 0 .287.701l3.123 3.177a1 1 0 0 0 .713.3zM4.13 11.652h2.314"/><path stroke-linecap="round" d="M3.667 9.297v4.71"/><path d="M12 6.471v1.884"/><path stroke-linecap="round" d="M13.852 6h-3.704"/><path d="M17.556 10.71h2.315m-2.315 3.768h2.315"/><path stroke-linecap="round" d="M20.334 8.826v7.536"/></g></svg>