<svg xmlns="http://www.w3.org/2000/svg" width="24" height="24" fill="none" class="cv-css-ltr-1e2fy0l"><g stroke="#00a651" stroke-linecap="round" stroke-linejoin="round" stroke-miterlimit="10"><path d="m14.132 15.708-.492-.491a1.048 1.048 0 0 1 1.3-1.626 1.048 1.048 0 0 1 1.626-1.3l.233.234a.96.96 0 0 1 1.575-1.02l1.247 1.223a.96.96 0 0 1-.68 1.64.924.924 0 0 1-.454-.12 1.044 1.044 0 0 1-1.464 1.405 1.048 1.048 0 0 1-.887 1.606c-.186 0-.371-.052-.536-.152a.96.96 0 0 1-1.516 1.152l-1.004-.983a.96.96 0 0 1 0-1.358.966.966 0 0 1 1.052-.21zm4.351-1.461L16.8 12.525m.223 3.125-2.083-2.06m.659 3.514-1.468-1.396m-6.793.378c-.32.32-.9.348-1.344.018-.491-.361-.65-.997-.357-1.42.027-.041.058-.076.09-.11.013-.014.03-.028.044-.041l4.847-4.737m1.313 7.727a93.391 93.391 0 0 1-.987 1.035c-.32.33-.883.33-1.326 0-.461-.34-.757-.97-.41-1.355"/><path d="m13.828 18.08-.392.392c-.32.32-.918 1.052-1.646.323 0 0-.574-.536-.018-1.097m9.2-7.552c-.175.176-.358.354-.505.557-.18.251-.282.536-.434.798a4.838 4.838 0 0 1-.529.711l-.186.217m-2.87-6.806c-.554.402-1.262.45-1.911.33-.612-.11-1.238-.303-1.867-.255M6.916 16.516l3.266-3.293m-1.77 4.785 3.255-3.28m.265 2.795.378-.381m-5.395-.626c-.357.357-.313.98.1 1.392s1.035.457 1.392.1"/><path d="M11.722 8.39c.374.01.808.23.997.557.12.21.072.457-.035.663-.35.667-.863 1.31-.86 2.1.004.502.451.867.919.953.264.051.419-.035.57-.251.32-.454.66-.898.994-1.341.409-.543.852-1.086 1.186-1.68a.757.757 0 0 0 .085-.187c.114-.433-.106-.907-.305-1.282-.141-.264-.29-.53-.495-.75-.337-.36-2.1-1.518-2.61-1.742-.467-.203-.945-.086-1.402.076-.395.14-.794.275-1.196.395-.375.117-.756.24-1.145.316-.42.08-.921.134-1.289-.127 0 0-.825-.113-2.757 1.815-1.932 1.932-1.76 2.698-1.76 2.698 1.238.963 1.784 1.97 3.451 3.637"/><path d="M11.942 7.228a4.108 4.108 0 0 1-1.842 2.97c-1.014.643-2.09.323-2.936-.437m2.481 2.774s1.804 1.973 2.88 2.774M7.136 6.087 6.1 4.464s-1.096.02-3.045 1.97C1.106 8.383 1 9.565 1 9.565L2.622 10.6m18.349-.454s.114-.825-1.818-2.76c-1.932-1.935-2.702-1.763-2.702-1.763"/><path d="m20.971 10.146 1.623-1.034s-.021-1.097-1.977-3.053C18.661 4.103 17.482 4 17.482 4l-1.035 1.623"/></g></svg>