<svg xmlns="http://www.w3.org/2000/svg" width="24" height="24" fill="none"><circle cx="12" cy="12" r="12"/><g fill="#00a651"><path d="M7.586 12.934a.344.344 0 0 0-.485.485l3.48 3.48a.342.342 0 0 0 .485 0 .342.342 0 0 0 0-.485zm.834-.834a.345.345 0 0 0-.486 0 .344.344 0 0 0 0 .486l3.48 3.48a.342.342 0 0 0 .486 0 .342.342 0 0 0 0-.485zm.833-.833a.345.345 0 0 0-.486 0 .344.344 0 0 0 0 .486l3.48 3.48a.341.341 0 0 0 .486 0 .345.345 0 0 0 0-.486z"/><path d="M15.966 5.805c-.092.092-.181.183-.268.276l-4.014-.102a1.615 1.615 0 0 0-1.175.468L4.136 12.81a1.603 1.603 0 0 0 0 2.266l4.792 4.787.002.002a1.597 1.597 0 0 0 2.263-.002l6.371-6.364a1.607 1.607 0 0 0 .471-1.174l-.103-4.065a.389.389 0 0 0 .152-.092c1.512-1.51 2.788-3.486 2.018-4.256-.774-.773-2.635.394-4.136 1.893zm1.047 7.14-6.37 6.364a.823.823 0 0 1-1.163.001l-4.794-4.789a.816.816 0 0 1-.033-1.12l.01-.012c.008-.01.017-.018.025-.026L11.06 7a.815.815 0 0 1 .603-.242l3.367.085a8.172 8.172 0 0 0-.815 1.2h-.002a1.761 1.761 0 0 0-1.753 1.548 1.758 1.758 0 0 0 2.577 1.761 1.759 1.759 0 0 0-.033-3.119 8.946 8.946 0 0 1 1.028-1.364l.687.017a.42.42 0 0 1 .407.408l.128 5.047a.824.824 0 0 1-.24.603zm-2.942-3.007a.977.977 0 0 0 .716.295c.105 0 .21-.014.313-.038a.97.97 0 0 1-1.598.266.97.97 0 0 1 .373-1.575c-.131.55.014.87.196 1.052zm.552-.552c-.017-.018-.05-.151.047-.447a.978.978 0 0 1 .423.444c-.338.132-.426.046-.47.003zm3.28-2.157a1.197 1.197 0 0 0-1.13-1.119c.648-.613 1.3-1.103 1.86-1.396.633-.33.892-.274.913-.254.106.184-.265 1.281-1.642 2.769z"/></g></svg>