<svg xmlns="http://www.w3.org/2000/svg" width="24" height="24" fill="none" class="cv-css-ltr-1e2fy0l"><clipPath id="a"><path d="M0 0h24v24H0z"/></clipPath><g stroke="#00a651" stroke-linecap="round" stroke-linejoin="round" stroke-miterlimit="10" clip-path="url(#a)"><path d="M13.835 12.227a1.85 1.85 0 0 1-1.83 1.62A1.847 1.847 0 0 1 10.157 12c0-.95.714-1.727 1.635-1.83"/><path d="M19 19c3.866-3.866 3.866-10.134 0-14C15.134 1.134 8.866 1.134 5 5 1.134 8.866 1.134 15.134 5 19c3.866 3.866 10.134 3.866 14 0zm-6.998-7 4.662-4.661M20.105 12h-1.437m-13.33 0H3.9m6.985 5.53v1.436m1.969-1.436v1.436m1.968-1.436v1.436m-2.82-15.068v1.437M8.916 17.53v1.436"/></g></svg>