<svg xmlns="http://www.w3.org/2000/svg" width="24" height="24" fill="none"><circle cx="12" cy="12" r="12"/><g fill="#00a651"><path d="M6.003 11.271c-.01.163.004.327.04.484a.89.89 0 0 0 .213.43.669.669 0 0 0 .38.213l2.083.349a.219.219 0 0 0 .155-.035c.037-.025.068-.061.09-.104a.336.336 0 0 0 .007-.29c-.688-1.555-.86-1.617-.953-1.652-.483-.084-.97-.139-1.457-.164-.19-.016-.505.08-.558.77zm.534-.18h.002c.533.04 1.133.097 1.3.132.17.272.323.56.457.859l-1.591-.268a.206.206 0 0 1-.116-.066.274.274 0 0 1-.064-.133 1.078 1.078 0 0 1-.026-.29.976.976 0 0 1 .039-.234zm8.746 1.656 2.082-.349c.142-.024.274-.098.38-.213s.18-.264.213-.43a1.77 1.77 0 0 0 .04-.484c-.054-.69-.371-.78-.558-.77-.488.025-.975.08-1.458.165-.093.034-.265.097-.953 1.651a.34.34 0 0 0 .007.29c.022.044.053.08.09.105a.22.22 0 0 0 .157.035zm.877-1.525c.171-.034.767-.092 1.298-.131a.662.662 0 0 1 .045.233c.004.098-.005.196-.027.291a.275.275 0 0 1-.064.132.207.207 0 0 1-.116.067l-1.593.267c.134-.3.287-.587.457-.86z"/><path d="m19.74 7.881-.862-.148a.587.587 0 0 0-.639.344l-.027.06a79.323 79.323 0 0 1-.348-.67.272.272 0 1 0-.484.25c.134.26.27.523.403.774H6.743a.271.271 0 0 0-.271.273.274.274 0 0 0 .272.273h11.333l.2.357c.089.173.194.337.314.49.282.419.51.871.68 1.347v2.856h-1.649a.271.271 0 0 0-.272.273.274.274 0 0 0 .272.273h1.65v.255a.974.974 0 0 1-.26.636 1.388 1.388 0 0 1-1.029.337H6.014a1.383 1.383 0 0 1-1.027-.337.971.971 0 0 1-.259-.645v-.247H16.88a.271.271 0 0 0 .272-.274.274.274 0 0 0-.272-.273H4.728V11.23a5.96 5.96 0 0 1 .679-1.347c.121-.152.227-.317.317-.49.082-.146.176-.313.278-.498.493-.91 1.124-2.175 1.308-2.542a.594.594 0 0 1 .472-.327c.435-.047 1.57-.161 2.68-.23a.272.272 0 0 0 .256-.29.274.274 0 0 0-.289-.255 67.53 67.53 0 0 0-2.704.23 1.133 1.133 0 0 0-.902.627c-.15.301-.607 1.214-1.037 2.031l-.026-.061a.582.582 0 0 0-.636-.345l-.863.15a.611.611 0 0 0-.511.606v.17a.62.62 0 0 0 .48.6l.827.183a6.607 6.607 0 0 0-.856 1.645.28.28 0 0 0-.017.094v6.195a.626.626 0 0 0 .622.624h1.346a.622.622 0 0 0 .624-.624v-.968h10.45v.968a.627.627 0 0 0 .622.624h1.346a.622.622 0 0 0 .621-.624V11.18a.277.277 0 0 0-.017-.095 6.718 6.718 0 0 0-.855-1.644l.824-.182a.617.617 0 0 0 .483-.601v-.17a.617.617 0 0 0-.51-.608zm-15.446.776v-.17a.068.068 0 0 1 .06-.068l.864-.15h.007a.04.04 0 0 1 .036.026l.2.454-.112.199-1.003-.224a.069.069 0 0 1-.052-.067zm1.938 8.719a.079.079 0 0 1-.078.078H4.806a.078.078 0 0 1-.078-.078v-1.364c.37.278.825.419 1.286.396h.218zm12.962.078h-1.346a.079.079 0 0 1-.078-.078v-.968h.212c.463.023.919-.118 1.289-.398v1.366a.079.079 0 0 1-.077.078zm.512-8.797a.07.07 0 0 1-.055.068l-1 .222-.111-.2.197-.452a.045.045 0 0 1 .046-.026l.863.15a.07.07 0 0 1 .06.068z"/><path d="M10.037 12a.258.258 0 0 0-.203.11c-.054.07-.084.166-.084.265s.03.195.084.265c.054.07.126.11.203.11h3.926c.077 0 .15-.04.203-.11.054-.07.084-.166.084-.265s-.03-.195-.084-.265a.258.258 0 0 0-.203-.11z"/></g><path stroke="#00a651" d="m18 8.625-.947-1.894a2 2 0 0 0-1.789-1.106H11.25c-.375 0-3.75 0-4.125.375-.3.3-.875 1.875-1.125 2.625"/></svg>