<svg viewBox="0 0 888 147" fill="none" xmlns="http://www.w3.org/2000/svg" width="157" height="26"><path d="M799.017 24.55v96.991h22.543V63.406l45.381 58.135H888V24.55h-22.542v56.06L821.56 24.55h-22.543ZM786.263 24.55h-24.025v96.694h24.025V24.55ZM674.442 24.55h-25.805l39.152 96.991h27.288l39.746-96.991h-24.915l-27.882 71.78-27.584-71.78Z" fill="#078E3E"/><path d="M309.91 25.143h-21.356v96.398h73.856v-18.686h-52.5V25.143ZM392.664 81.499h35.593V64.296h-35.593v-21.06h53.686V25.143h-75.339v96.398h75.932v-18.093h-54.279v-21.95ZM494.104 25.143l-39.449 96.398h22.246l9.195-24.025h40.635l9.195 24.025h23.135l-38.855-96.398h-26.102Zm-2.076 55.763 14.237-37.373 13.941 37.373h-28.178ZM629.951 82.685l1.483-.593c5.339-2.373 9.788-5.932 12.754-10.678 3.262-4.746 4.746-10.084 4.746-16.017 0-5.932-1.484-10.974-4.45-15.423-2.669-4.45-6.822-8.305-11.864-10.678-5.042-2.67-10.974-3.856-17.5-3.856h-49.237v96.398h21.356V85.652h21.059l18.687 36.186h23.728l-20.762-39.153Zm-6.822-17.796c-2.373 2.373-5.933 3.56-10.085 3.56h-25.508v-25.51h25.508c4.152 0 7.415 1.187 10.085 3.56 2.669 2.373 4.152 5.34 4.152 9.195 0 3.856-1.483 6.822-4.152 9.195ZM255.75 101.214c-4.103 2.056-9.084 3.231-13.479 3.231-4.103 0-8.205-.881-12.014-2.35-3.517-1.469-6.74-3.819-9.377-6.757-2.637-2.644-4.981-6.169-6.446-9.694a35.81 35.81 0 0 1-2.345-12.633c0-4.7.879-8.519 2.345-12.632 1.465-3.525 3.516-7.05 6.153-9.694 2.637-2.644 5.567-4.995 9.377-6.757 3.809-1.469 7.618-2.35 11.721-2.35 4.395 0 9.083 1.175 13.186 3.231l13.185-13.807c-1.465-.881-2.93-2.056-4.981-2.644-6.739-3.232-13.772-4.994-21.39-4.994-6.74 0-13.186 1.175-19.047 3.819-6.153 2.644-11.135 5.875-15.53 10.576-4.395 4.406-7.912 9.694-10.549 15.57-2.637 5.875-3.809 12.632-3.809 19.682 0 7.051 1.172 13.22 3.809 19.683 2.344 5.876 6.154 11.457 10.549 15.57 4.395 4.407 9.377 7.932 15.53 10.576 6.154 2.644 12.307 3.819 19.633 3.819 7.032 0 14.358-1.469 21.097-4.7 6.74-3.232 12.307-7.345 16.995-12.926l-12.307-12.926c-4.395 4.112-8.204 6.757-12.306 9.107Z" fill="#202020"/><path d="M73.17 146.023c40.403 0 72.853-32.84 72.853-73.012S113.255 0 73.17 0C33.086 0 0 32.52 0 73.011c0 40.491 32.768 73.012 73.17 73.012Z" fill="#078E3E"/><path d="M87.687 98.897c-4.171 2.085-8.864 3.128-13.556 3.128-4.432 0-8.343-.782-11.993-2.346-3.65-1.564-6.778-3.65-9.385-6.257-2.607-2.607-4.953-5.996-6.257-9.385-1.564-3.91-2.346-7.821-2.346-11.992 0-4.432.782-8.343 2.346-11.992 1.304-3.65 3.39-6.779 6.257-9.646a22.911 22.911 0 0 1 9.385-6.257c3.65-1.564 7.821-2.346 11.732-2.346 4.692 0 8.864 1.042 13.035 2.867L100.2 31.376c-1.564-.782-3.128-1.825-4.953-2.347-7.039-3.128-14.078-4.692-21.638-4.692a52.882 52.882 0 0 0-19.292 3.65c-5.996 2.346-11.21 5.735-15.642 10.167-4.431 4.171-7.82 9.385-10.427 15.381-2.608 5.736-3.911 12.253-3.911 18.77 0 6.779 1.303 13.035 3.65 18.77 2.346 5.736 5.996 10.95 10.428 15.121 4.432 4.171 9.646 7.56 15.642 10.167 5.996 2.347 12.513 3.65 19.552 3.65 7.3 0 14.339-1.564 21.117-4.692 6.778-3.129 12.513-7.3 16.945-12.514L99.157 90.294a40.14 40.14 0 0 1-11.47 8.603Z" fill="#fff"/><path fill-rule="evenodd" clip-rule="evenodd" d="M108.044 39.302a16.759 16.759 0 0 1 4.906 11.844 16.763 16.763 0 0 1-4.906 11.843L80.95 90.08 59.114 68.246l11.847-11.844 9.987 9.988 27.095-27.087Z" fill="#96FFAD"/><mask id="cv-logo-2022_svg__a" style="mask-type:alpha" maskUnits="userSpaceOnUse" x="59" y="39" width="54" height="52"><path fill-rule="evenodd" clip-rule="evenodd" d="M108.012 39.348a16.772 16.772 0 0 1 .018 23.708L80.95 90.21 59.114 68.376l11.847-11.844 9.987 9.991 27.066-27.172-.003-.003Z" fill="#fff"/></mask></svg>