<svg xmlns="http://www.w3.org/2000/svg" width="24" height="24" fill="none" class="cv-css-ltr-1e2fy0l"><clipPath id="a"><path d="M0 0h24v24H0z"/></clipPath><g stroke="#00a651" stroke-linecap="round" stroke-linejoin="round" stroke-miterlimit="10" clip-path="url(#a)"><path d="M-1 11H9m2 9H-1m0-14c1.795.13 3.057.372 3.639.691 1.452.788 6.147 3.697 6.147 3.697s9.909.362 10.716 1.61c.807 1.25 2.147 2.43 1.135 6.64 0 0-.22 1.067-2.666 1.362"/><path d="M16.44 21.384A1.996 1.996 0 0 1 15 22a1.983 1.983 0 0 1-1.492-.673 1.965 1.965 0 0 1-.508-1.32v-.004a2.001 2.001 0 0 1 4-.006c0 .031-.005.068-.005.099a2.01 2.01 0 0 1-.555 1.288zM9 20v-.013C9 17.229 11.686 15 15 15"/><path d="M17.015 22.077c-.633.568-1.53.923-2.52.923-1.038 0-1.97-.389-2.608-1.007-.55-.526-.882-1.22-.887-1.98v-.009C11 18.345 12.565 17 14.5 17s3.5 1.345 3.5 3c0 .05-.005.1-.01.15-.053.748-.41 1.421-.975 1.927zM20.086 13H16s.828 1.723 1.566 1.831C18.303 14.935 21 15 21 15m-3 0H-1h2.903M-1 23h22M10.824 9.422 10 6.37l2.967 1.089-1-4.4 3.696 2.378s4.06-5.51 4.06-5.436l.05 6.71L23 6.16 20.293 11"/><path d="M14.287 10.078 14 9.198l1.523.445L17.343 7l.156 2.974L19 9.864 18.418 11"/></g></svg>