<svg xmlns="http://www.w3.org/2000/svg" width="24" height="24" fill="none" class="cv-css-ltr-1e2fy0l"><g stroke="#00a651" stroke-linecap="round" stroke-linejoin="round" stroke-miterlimit="10"><path d="M12 5.3H8.089L3.27 9.76l4.082 10.31 4.647.986M4.214 8.764l-1.492-1.35a.66.66 0 0 1 0-.987L4.78 4.551a.825.825 0 0 1 1.081 0L7.334 5.88m12.454 2.884 1.492-1.35a.659.659 0 0 0 0-.987l-2.058-1.876a.825.825 0 0 0-1.082 0L16.668 5.88"/><path d="M3.993 11.585 2 13.068l1.993 7.002h3.36M12 5.3h3.91l4.818 4.46-4.081 10.31-4.647.986m8.006-9.471L22 13.068l-1.993 7.002h-3.36M14.97 3.392H9.011c-.506 0-.921.378-.921.84v.223c0 .461.415.84.921.84h5.96c.505 0 .92-.379.92-.84v-.224c0-.46-.415-.84-.92-.84z"/><path d="M13.468 15.788c0 .744-.66 1.347-1.477 1.347s-1.477-.603-1.477-1.347.66-1.346 1.477-1.346 1.477.602 1.477 1.346z"/><path d="M11.99 19.02c1.959 0 3.546-1.447 3.546-3.232s-1.587-3.231-3.545-3.231-3.546 1.447-3.546 3.231 1.588 3.232 3.546 3.232zM9.406 9.695c0 .744-.661 1.346-1.478 1.346-.816 0-1.477-.602-1.477-1.346 0-.744.661-1.347 1.477-1.347.817 0 1.478.603 1.478 1.347zm6.134-1.716c0 .47-.415.849-.93.849-.517 0-.932-.38-.932-.85s.415-.848.931-.848c.51 0 .931.383.931.849zm-8.017.424L14.47 7.14m1.071 8.648v-7.81m-8.984 2.21 1.983 6.344M13.586 1h-3.174c-.551 0-1.002.41-1.002.913v.566c0 .502.45.913 1.002.913h3.174c.551 0 1.002-.411 1.002-.913v-.566c0-.502-.45-.913-1.002-.913zm2.081 19.508v1.456c0 .57-.511 1.036-1.137 1.036H9.447c-.626 0-1.136-.466-1.136-1.036v-1.456"/></g></svg>