<svg xmlns="http://www.w3.org/2000/svg" width="24" height="24" fill="none"><g stroke="#00a651" stroke-linecap="round" stroke-linejoin="round" stroke-miterlimit="10"><path d="M9.54 5.374s.607 0 .982-.393a.794.794 0 0 0 .191-.298s.268-.444 1.025-.02m-5.104 7.045c-.956-.992-1.377-2.163-.945-2.612.436-.452 1.56-.012 2.517.98M6.902 8.108c.547-.02 1.37.409 2.085 1.151m-1.03-2.242c.547-.02 1.37.409 2.084 1.15l1.584-1.642"/><path d="M5.523 9.461s.031-.543.421-.952c.39-.405.872-.397.872-.397m.006 0s.608 0 .983-.388c.375-.39.157-.707.157-.707m-1.329 4.691c.956.992 2.084 1.428 2.516.98.436-.452.012-1.62-.944-2.611"/><path d="M8.797 12.855s.524-.032.918-.437c.39-.405.382-.905.382-.905m.003 0s0-.63.378-1.02c.375-.388.68-.162.68-.162M11.826 3c.547-.02 1.37.41 2.084 1.152m-2.172-1.148s-.482-.008-.872.397c-.264.274-.543.834-.24 1.19m2.111 4.097s0-.631.379-1.02a.76.76 0 0 1 .287-.199s.764-.492-.723-2.036m2.345.885c.02-.567-.394-1.42-1.109-2.163"/><path d="M15.017 6.41c-.004.337-.157.67-.383.905-.31.321-.788.551-1.204.305m-5.473-.603L9.54 5.374c.547-.02 1.37.409 2.085 1.151m-.469 3.81c.02-.568-.394-1.421-1.11-2.163l1.584-1.643"/><path d="m11.152 10.335 1.584-1.643c.019-.568-.394-1.421-1.11-2.163m-.071 5.235-1.106-1.143m2.578-2.663 1.071 1.166m.002 0c.18.187-.241.933-.945 1.663-.703.73-1.419 1.167-1.602.98"/><path d="M11.889 11.755s1.04-.095 3.197 2.143 5.828 8.608 7.595 6.775M14.09 9.47s-.091 1.079 2.066 3.317c2.157 2.238 8.295 6.048 6.528 7.882M8.212 16.986c-3.044 0-5.51-.62-5.51-1.377 0-.762 2.466-1.377 5.51-1.377m.001 6.766c-3.277 0-6.019-.571-6.719-1.337m6.718-.271c-3.805 0-6.892-.773-6.892-1.722 0-.186.123-.369.345-.54"/><path d="M1.41 17.395s-.957 1.234.053 2.238l.02.02m.183-2.524s.872-.631 1.04-1.52m5.509 1.377c3.044 0 5.51-.62 5.51-1.377 0-.762-2.466-1.377-5.51-1.377m-.002 6.766c3.277 0 6.02-.571 6.72-1.337m-6.72-.271c3.805 0 6.891-.773 6.891-1.722 0-.186-.122-.369-.344-.54"/><path d="M15.016 17.395s.956 1.234-.053 2.238l-.02.02m-.183-2.524s-.871-.631-1.04-1.52"/></g></svg>