<svg xmlns="http://www.w3.org/2000/svg" width="24" height="18" fill="none" class="cv-css-ltr-1wk3z6a" viewBox="0 0 14 20"><path d="M9.836 7.55H4.164c-.096-.19-.262-.535-.406-.91-.16-.414-.236-.713-.254-.922-.018-.208.026-.262.028-.264.233-.283.71-.528 1.382-.696.653-.163 1.405-.233 2.086-.233.68 0 1.433.07 2.085.233.672.168 1.15.413 1.382.696.003.003.047.056.029.264-.018.209-.094.508-.254.923a10.006 10.006 0 0 1-.406.908zM4.23 14.576v.001a.824.824 0 0 1-.704.385c-.188 0-.356-.061-.48-.121a2.17 2.17 0 0 1-.349-.218 3.903 3.903 0 0 1-.441-.394.685.685 0 0 1-.193-.476V8.31a.683.683 0 0 1 1.264-.36l.023.036c.093.15.392.634.535.859.204.323.34.828.434 1.303.098.498.166 1.045.204 1.508zm0 0c.137-.217.21-.485.255-.731m-.255.731.255-.731m0 0c.047-.256.069-.535.078-.803m-.078.803.078-.803m0 0a12.554 12.554 0 0 0-.04-1.387zm-1.5-4.57-.025-.04a.314.314 0 0 0 .025-.123zm6.776 6.104v.001a.824.824 0 0 0 .704.385c.188 0 .356-.061.48-.121a2.17 2.17 0 0 0 .348-.218c.201-.151.369-.318.442-.394a.685.685 0 0 0 .192-.476V8.31c0-.304-.2-.573-.494-.658h-.001a.683.683 0 0 0-.769.297l-.022.037c-.093.15-.392.634-.535.859-.204.323-.34.828-.434 1.303a13.827 13.827 0 0 0-.204 1.508zm0 0c-.137-.217-.211-.485-.256-.731m.256.731-.256-.731m0 0a5.711 5.711 0 0 1-.077-.803m.077.803-.077-.803m0 0c-.019-.538.014-1.077.04-1.387zm1.5-4.57.024-.04a.315.315 0 0 1-.025-.123zm-1.093 9c.02-.025.068-.125.1-.348.03-.205.04-.452.035-.704a9.55 9.55 0 0 0-.05-.793H4.002c-.02.204-.044.492-.05.793-.004.252.005.499.035.704.033.223.08.323.1.348zm0 0c-.187.242-.579.459-1.147.61-.55.145-1.188.208-1.766.208a7.146 7.146 0 0 1-1.767-.209m4.68-.609-4.68.61m0 0c-.568-.152-.96-.368-1.147-.61zm4.734-2.73v.002z"/><path d="m12.044 7.844-.037-.504c-.03-.418-.06-.824-.09-1.21v-.001l-.001-.022c-.11-1.474-.2-2.672-.2-3.332v-.021l-.005-.021v-.018c-.017-.1-.08-.245-.224-.429a3.674 3.674 0 0 0-.603-.588 6.472 6.472 0 0 0-1.429-.86L9.45.834a2.092 2.092 0 0 0-.048-.02C8.904.627 8.035.5 7 .5 5.965.5 5.095.626 4.597.817a2.589 2.589 0 0 0-.035.013l-.019.008c-.362.148-.936.47-1.426.86a3.676 3.676 0 0 0-.602.587c-.154.197-.216.349-.228.45l-.002.019-.001.02c0 .67-.094 1.928-.2 3.349l-.002.032a852.61 852.61 0 0 1-.087 1.176l-.037.504-.503-.041a1.016 1.016 0 0 0-.47.088.95.95 0 0 0-.43.34c-.072.114-.055.172-.048.188zm0 0 .503-.042c.13-.01.293.012.456.078m-.959-.036.96.036m0 0a.948.948 0 0 1 .438.328c.074.111.058.17.052.186-.006.014-.019.037-.062.06a.521.521 0 0 1-.248.051c-.117 0-.251-.025-.386-.078l-.733-.288.051.786c.12 1.868.218 3.872.184 5.579-.017.854-.067 1.623-.16 2.257-.094.648-.227 1.105-.381 1.37-.06.102-.23.318-.447.532a3.06 3.06 0 0 1-.306.268.838.838 0 0 1-.193.117C9.985 19.327 8.6 19.5 7 19.5s-2.985-.173-3.812-.452a.84.84 0 0 1-.194-.118 3.048 3.048 0 0 1-.306-.268 3.177 3.177 0 0 1-.446-.53c-.155-.267-.288-.724-.383-1.372-.092-.634-.142-1.403-.158-2.257-.034-1.708.063-3.712.184-5.58l.052-.802-.742.307c-.14.058-.278.085-.396.085-.236 0-.287-.092-.292-.103z"/></svg>