<svg xmlns="http://www.w3.org/2000/svg" width="24" height="24" fill="none" class="cv-css-ltr-1e2fy0l"><path stroke="#00A651" stroke-linecap="round" stroke-linejoin="round" stroke-miterlimit="10" d="m4.684 8.177-2.53 2.397c-1.396 1.322-.304 4.5 2.437 7.1 2.745 2.6 6.102 3.634 7.498 2.308l2.53-2.396"/><path stroke="#00A651" stroke-linecap="round" stroke-linejoin="round" stroke-miterlimit="10" d="M4.612 8.245c-1.396 1.322-.304 4.501 2.441 7.1 2.746 2.6 6.102 3.635 7.498 2.313 1.396-1.322.304-4.5-2.437-7.1-2.746-2.6-6.102-3.634-7.502-2.313Zm15.746-1.901 2.13 2.017c1.177 1.114.257 3.79-2.054 5.978-1.168 1.107-2.466 1.877-3.622 2.225"/><path stroke="#00A651" stroke-linecap="round" stroke-linejoin="round" stroke-miterlimit="10" d="M13.063 9.483c.308-.387.658-.766 1.046-1.138 2.31-2.188 5.136-3.059 6.313-1.945 1.176 1.114.257 3.79-2.054 5.979-.641.607-1.32 1.11-1.99 1.497M14.206 3.573v1.745c0 .962-1.62 1.745-3.619 1.745-1.998 0-3.618-.783-3.618-1.745V3.573"/><path stroke="#00A651" stroke-linecap="round" stroke-linejoin="round" stroke-miterlimit="10" d="M14.206 3.62c0 .963-1.62 1.746-3.619 1.746-1.998 0-3.618-.783-3.618-1.745 0-.963 1.62-1.746 3.618-1.746 2 .004 3.619.783 3.619 1.746Z"/><path stroke="#00A651" stroke-linecap="round" stroke-linejoin="round" stroke-miterlimit="10" d="M9.293 3.625c0-.208.578-.372 1.295-.372s1.294.168 1.294.372m-2.495 7.259s-2.298.44-1.455 1.502c.83 1.046 2.416-.26 3.323.388.962.69-.025 1.521-1.467 1.944m-2.484-4.033.658.611m3.105 2.875.788.735m-7.409-3.15L1 15.018m3.52-.455-2.53 2.396m5.02-1.653-3.235 3.059m3.512-.348-2.53 2.396m5.019-1.645-2.488 2.356"/></svg>